<?xml version="1.0" encoding="utf-8"?>
<!-- Generator: Adobe Illustrator 16.0.0, SVG Export Plug-In . SVG Version: 6.00 Build 0)  -->
<!DOCTYPE svg PUBLIC "-//W3C//DTD SVG 1.1//EN" "http://www.w3.org/Graphics/SVG/1.1/DTD/svg11.dtd">
<svg version="1.1" id="图层_1" xmlns="http://www.w3.org/2000/svg" xmlns:xlink="http://www.w3.org/1999/xlink" x="0px" y="0px"
	 width="200px" height="200px" viewBox="0 0 200 200" enable-background="new 0 0 200 200" xml:space="preserve">
<path d="M1248,195c-52.466,0-95-42.534-95-95c0-52.466,42.534-95,95-95c52.467,0,95,42.534,95,95
	C1343,152.466,1300.467,195,1248,195z M1248,17.056c-45.807,0-82.944,37.133-82.944,82.944c0,45.811,37.138,82.944,82.944,82.944
	c45.811,0,82.944-37.134,82.944-82.944C1330.944,54.189,1293.811,17.056,1248,17.056z M1311.333,136.944h-10.556
	c0-14.572-11.816-26.389-26.389-26.389c-14.577,0-26.389,11.816-26.389,26.389h-10.556c0-14.261,8.092-26.61,19.918-32.77
	c-5.679-4.84-9.362-11.959-9.362-20.008c0-14.572,11.812-26.389,26.389-26.389c14.572,0,26.389,11.817,26.389,26.389
	c0,8.048-3.678,15.168-9.362,20.008C1303.243,110.334,1311.333,122.684,1311.333,136.944z M1274.389,68.333
	c-8.745,0-15.833,7.088-15.833,15.834c0,8.745,7.088,15.833,15.833,15.833c8.746,0,15.834-7.088,15.834-15.833
	C1290.223,75.421,1283.135,68.333,1274.389,68.333z M1189.944,100h47.5v10.556h-47.5V100z M1189.944,73.611h47.5v10.556h-47.5
	V73.611z M1226.889,136.944h-36.944v-10.556h36.944V136.944z"/>
<path d="M193.206,93.947l-83.467-82.404c-0.422-0.5-1.302-1.317-2.531-2.129c-2.201-1.45-4.544-2.187-6.955-2.187
	c-2.595,0-4.994,0.744-7.134,2.208c-1.417,0.976-2.175,1.852-2.5,2.286L7.307,93.955c-1.427,1.404-2.21,3.276-2.21,5.266
	c0,1.986,0.784,3.855,2.21,5.26c2.624,2.604,6.454,1.86,10.104-1.732l5.6-5.538l77.476-75.047l0.472,0.46l82.15,80.776
	c2.518,1.649,4.779,2.523,6.61,2.523c1.365,0,2.507-0.474,3.487-1.443c1.425-1.404,2.209-3.268,2.216-5.26
	C195.422,97.231,194.638,95.359,193.206,93.947L193.206,93.947z M193.206,93.947"/>
<path d="M162.071,89.688c-3.44,0-6.257,2.776-6.274,6.184v76.872c0,4.201-3.463,7.614-7.721,7.614h-19.137v-42.85
	c0-10.534-8.67-19.104-19.325-19.104H90.897c-10.657,0-19.325,8.57-19.325,19.104v42.85H52.436c-4.259,0-7.726-3.413-7.726-7.614
	V95.892c-0.008-3.422-2.816-6.203-6.263-6.203c-3.444,0-6.26,2.781-6.271,6.197v77.784c0,10.534,8.67,19.104,19.328,19.104h32.602
	v-54.335c0-4.192,3.466-7.601,7.726-7.601h16.854c4.261,0,7.722,3.408,7.722,7.601v54.335h32.606
	c10.653,0,19.327-8.57,19.327-19.104V95.878C168.314,92.47,165.506,89.688,162.071,89.688L162.071,89.688z M162.071,89.688"/>
<g>
	<path d="M423.903,95.54h-0.147c-2.767-50.269-44.532-90.313-95.477-90.313c-52.728,0-95.625,42.898-95.625,95.625
		s42.897,95.624,95.625,95.624c52.727,0,95.624-42.897,95.624-95.624c0-1.655-0.041-3.3-0.127-4.934L423.903,95.54z
		 M248.875,133.482c-4.259-9.621-6.721-18.098-6.911-29.03h31.605c0.086,11.065,1.222,19.554,3.254,29.209l-27.229,1.026
		L248.875,133.482z M330.879,55.64v-40.61l-0.666-0.288c15.219,2.075,29.688,17.808,38.128,40.898H330.879z M370.891,65.442
		c2.811,9.714,4.573,18.291,4.954,29.209h-44.966V65.442H370.891z M323.078,14.875V55.64h-35.03
		C295.634,33.016,308.496,17.46,323.078,14.875L323.078,14.875z M323.078,65.442v29.209h-42.081
		c0.47-10.908,2.119-19.489,4.709-29.209H323.078z M273.682,94.651h-31.486c0.839-10.971,3.805-19.533,8.474-29.209h27.217
		c-2.344,9.667-3.797,19.175-4.204,30.209V94.651z M280.867,104.452h42.211v29.209h-38.143
		C282.438,123.944,280.979,115.388,280.867,104.452L280.867,104.452z M323.078,143.462v42.866
		c-14.751-3.903-28.271-19.892-35.857-42.866H323.078z M330.879,187.137v-43.675h38.835
		C361.858,168.95,347.354,186.166,330.879,187.137L330.879,187.137z M330.879,133.661v-29.209h45.002
		c-0.255,10.912-1.674,19.473-4.028,29.209H330.879z M382.988,104.452h31.606c-0.182,10.999-2.524,19.539-6.619,29.209h-28.241
		C381.766,124.006,382.9,115.518,382.988,104.452L382.988,104.452z M382.876,94.651c-0.409-11.034-1.86-19.542-4.204-29.209h26.737
		c4.904,9.676,8.048,18.239,8.938,29.209H382.876z M400.952,55.64h-24.418c-4.698-15.285-11.744-27.006-20.425-35.71
		c18.362,6.961,34.271,20.159,44.843,36.71V55.64z M301.716,18.697c-9.263,8.717-16.77,20.92-21.692,36.942h-25.107
		C265.638,38.055,282.235,25.254,301.716,18.697L301.716,18.697z M252.929,143.462h25.78c4.558,16.618,11.921,29.267,21.201,38.405
		c-19.754-7.249-36.621-21.427-46.981-39.405V143.462z M355.416,183.046c9.859-9.124,17.676-22.235,22.432-39.584h26.348
		C393.755,162.473,376.266,176.23,355.416,183.046L355.416,183.046z M355.416,183.046"/>
</g>
<g>
	<g>
		<defs>
			<rect id="SVGID_1_" x="467.5" y="13.235" width="175" height="175.247"/>
		</defs>
		<clipPath id="SVGID_2_">
			<use xlink:href="#SVGID_1_"  overflow="visible"/>
		</clipPath>
		<path clip-path="url(#SVGID_2_)" d="M604.893,28.949v15.617h-12.494V28.949c0-0.845-0.309-1.576-0.926-2.196
			c-0.619-0.618-1.353-0.928-2.196-0.928H483.087c-0.848,0-1.581,0.311-2.197,0.928c-0.619,0.619-0.927,1.351-0.927,2.196v106.19
			c0,0.847,0.307,1.579,0.927,2.198c0.618,0.617,1.349,0.926,2.197,0.926h15.615v12.491h-15.615c-4.295,0-7.973-1.525-11.03-4.586
			c-3.06-3.059-4.588-6.734-4.588-11.029V28.949c0-4.294,1.528-7.97,4.588-11.029c3.056-3.057,6.734-4.587,11.03-4.587h106.189
			c4.295,0,7.97,1.53,11.028,4.587C603.362,20.979,604.893,24.655,604.893,28.949L604.893,28.949z M642.371,66.427v106.19
			c0,4.295-1.53,7.971-4.587,11.031c-3.06,3.057-6.735,4.587-11.029,4.587H520.565c-4.296,0-7.972-1.53-11.029-4.587
			c-3.059-3.061-4.587-6.736-4.587-11.031V66.427c0-4.294,1.528-7.969,4.587-11.029c3.058-3.057,6.733-4.587,11.029-4.587h106.189
			c4.294,0,7.969,1.53,11.029,4.587C640.841,58.458,642.371,62.133,642.371,66.427L642.371,66.427z M629.879,172.617V66.427
			c0-0.844-0.31-1.576-0.927-2.195c-0.619-0.618-1.353-0.928-2.197-0.928H520.565c-0.847,0-1.579,0.31-2.197,0.928
			c-0.618,0.619-0.927,1.352-0.927,2.195v106.19c0,0.846,0.309,1.578,0.927,2.197c0.618,0.617,1.351,0.926,2.197,0.926h106.189
			c0.845,0,1.577-0.309,2.197-0.926C629.569,174.195,629.879,173.463,629.879,172.617L629.879,172.617z M629.879,172.617"/>
	</g>
</g>
<path d="M874.39,20.898c-2.501-2.104-5.808-2.991-9.026-2.421l-93.99,16.584c-5.283,0.928-9.135,5.52-9.132,10.885v94.918
	c-5.61-4.069-12.891-6.469-20.974-6.469c-4.698,0-9.397,0.78-13.979,2.3c-10.493,3.501-18.907,10.514-23.087,19.26
	c-3.227,6.761-3.644,14.113-1.183,20.71c4.207,11.264,16.158,18.54,30.448,18.54c4.7,0,9.398-0.77,13.977-2.3
	c10.486-3.49,18.898-10.504,23.079-19.24c1.733-3.633,2.645-7.604,2.67-11.629h0.1v-88.45c0.637,0,1.283-0.056,1.925-0.16
	l92.069-16.248v67.101c-5.616-4.069-12.892-6.469-20.979-6.469c-4.699,0-9.402,0.779-13.979,2.301
	c-10.493,3.498-18.907,10.513-23.076,19.259c-3.229,6.762-3.648,14.113-1.188,20.707c4.213,11.27,16.152,18.543,30.449,18.543
	c4.755-0.007,9.475-0.784,13.979-2.299c10.482-3.488,18.896-10.504,23.075-19.238c1.734-3.634,2.648-7.605,2.676-11.632h0.1V29.362
	C878.343,26.101,876.894,22.993,874.39,20.898L874.39,20.898z M743.938,182.425c-13.245,4.418-26.938,0.099-30.565-9.618
	c-3.637-9.731,4.151-21.195,17.392-25.613c13.247-4.416,26.939-0.109,30.564,9.62C764.972,166.537,757.183,178.009,743.938,182.425
	L743.938,182.425z M848.778,165.84c-13.257,4.416-26.95,0.1-30.577-9.617c-3.636-9.729,4.158-21.196,17.394-25.614
	c13.255-4.415,26.947-0.109,30.575,9.62C869.813,149.953,862.03,161.422,848.778,165.84L848.778,165.84z M867.06,45.947
	L773.07,62.532V45.947l93.989-16.584V45.947z M867.06,45.947"/>
<path d="M1080.297,153.561c7.147,0,11.911-2.385,16.677-7.15c4.766-4.764,7.146-9.528,7.146-16.677
	c0-5.953-2.381-10.72-5.953-15.484c-3.575-4.765-8.341-7.149-14.297-8.339c-3.573,0-5.956-3.572-5.956-7.148
	c0-14.295-5.956-26.207-14.295-35.737c-9.529-9.53-21.442-14.295-35.737-14.295c-10.722,0-19.06,2.383-27.399,8.338
	c-7.146,7.148-12.607,12.807-17.868,23.827c-1.147,2.402-3.573,4.765-5.956,4.765c-9.529,0-16.678,4.763-22.635,10.719
	c-5.955,5.959-9.528,14.296-9.528,23.826c0,9.528,3.573,17.868,9.528,23.824c5.957,5.958,14.297,9.531,23.826,9.531H1080.297z
	 M980.784,116.437c-1.175-1.175-1.175-4.706,0-5.881c1.177-1.176,4.706-1.176,5.883,0l8.232,8.234V94.087
	c0-2.353,2.354-4.706,4.706-4.706c2.352,0,4.705,2.353,4.705,4.706v24.703l8.233-8.234c1.178-1.176,4.706-1.176,5.882,0
	c1.178,2.352,1.178,4.706,0,5.881l-18.926,17.48l-1.808-1.5L980.784,116.437z M1030.189,112.907c-1.177,1.178-4.705,1.178-5.881,0
	c-1.178-2.352-1.178-4.705,0-5.882l19.129-18.619l2.063,2.151l14.097,15.292c1.176,1.176,1.176,4.706,0,5.881
	c-1.177,1.177-4.704,1.177-5.881,0l-5.882-7.056v24.7c0,2.354-2.353,4.706-4.705,4.706c-2.354,0-4.705-2.352-4.705-4.706v-24.7
	L1030.189,112.907z M1106.649,156.432c-7.059,7.058-15.293,10.585-25.88,10.585h-101.16c-12.94,0-25.879-5.879-34.113-14.114
	c-8.234-9.411-14.116-21.173-14.116-34.112c0-12.94,4.705-24.703,12.939-32.937c7.058-7.059,16.468-12.94,28.23-14.116
	c4.706-9.411,11.763-17.645,21.174-23.527c10.587-7.058,22.35-10.586,35.289-10.586c17.646,0,32.937,7.058,44.7,18.821
	c10.587,10.587,17.644,24.703,18.82,39.993c5.882,2.353,11.764,5.884,16.469,11.764c5.881,7.06,8.234,15.294,8.234,23.527
	C1117.236,141.139,1113.707,150.549,1106.649,156.432L1106.649,156.432z M1106.649,156.432"/>
</svg>
