<?xml version="1.0" encoding="utf-8"?>
<!-- Generator: Adobe Illustrator 16.0.0, SVG Export Plug-In . SVG Version: 6.00 Build 0)  -->
<!DOCTYPE svg PUBLIC "-//W3C//DTD SVG 1.1//EN" "http://www.w3.org/Graphics/SVG/1.1/DTD/svg11.dtd">
<svg version="1.1" id="图层_1" xmlns="http://www.w3.org/2000/svg" xmlns:xlink="http://www.w3.org/1999/xlink" x="0px" y="0px"
	 width="200px" height="200px" viewBox="1412 0 200 200" enable-background="new 1412 0 200 200" xml:space="preserve">
<path d="M1248,195c-52.467,0-95-42.534-95-95s42.533-95,95-95s95,42.534,95,95S1300.467,195,1248,195z M1248,17.056
	c-45.807,0-82.943,37.133-82.943,82.944c0,45.811,37.137,82.943,82.943,82.943c45.811,0,82.943-37.133,82.943-82.943
	C1330.943,54.189,1293.811,17.056,1248,17.056z M1311.332,136.943h-10.555c0-14.571-11.816-26.389-26.389-26.389
	c-14.578,0-26.391,11.816-26.391,26.389h-10.555c0-14.26,8.092-26.609,19.918-32.77c-5.68-4.84-9.363-11.959-9.363-20.008
	c0-14.572,11.813-26.389,26.391-26.389c14.57,0,26.389,11.817,26.389,26.389c0,8.048-3.678,15.168-9.363,20.008
	C1303.242,110.334,1311.332,122.684,1311.332,136.943z M1274.389,68.333c-8.744,0-15.832,7.088-15.832,15.834
	c0,8.745,7.088,15.833,15.832,15.833c8.746,0,15.834-7.088,15.834-15.833C1290.223,75.421,1283.135,68.333,1274.389,68.333z
	 M1189.943,100h47.5v10.557h-47.5V100z M1189.943,73.611h47.5v10.556h-47.5V73.611z M1226.889,136.943h-36.943v-10.555h36.943
	V136.943z"/>
<path d="M193.206,93.947l-83.468-82.404c-0.422-0.5-1.301-1.317-2.53-2.129c-2.201-1.45-4.544-2.187-6.955-2.187
	c-2.595,0-4.994,0.744-7.134,2.208c-1.417,0.976-2.176,1.852-2.5,2.286L7.307,93.955c-1.427,1.404-2.209,3.275-2.209,5.266
	c0,1.986,0.783,3.855,2.209,5.26c2.625,2.604,6.455,1.86,10.104-1.731l5.601-5.538l77.475-75.047l0.473,0.46l82.15,80.776
	c2.518,1.648,4.779,2.522,6.609,2.522c1.365,0,2.508-0.474,3.487-1.442c1.425-1.404,2.209-3.269,2.216-5.261
	C195.422,97.23,194.639,95.359,193.206,93.947L193.206,93.947z"/>
<path d="M162.07,89.688c-3.439,0-6.256,2.776-6.273,6.185v76.872c0,4.201-3.463,7.613-7.721,7.613h-19.137v-42.85
	c0-10.533-8.67-19.104-19.326-19.104H90.896c-10.656,0-19.324,8.57-19.324,19.104v42.85H52.436c-4.258,0-7.726-3.412-7.726-7.613
	V95.893c-0.008-3.423-2.815-6.203-6.263-6.203c-3.444,0-6.26,2.78-6.271,6.196v77.784c0,10.534,8.67,19.104,19.328,19.104h32.602
	v-54.334c0-4.192,3.467-7.602,7.727-7.602h16.854c4.262,0,7.723,3.408,7.723,7.602v54.334h32.605
	c10.653,0,19.327-8.569,19.327-19.104V95.878C168.314,92.47,165.506,89.688,162.07,89.688L162.07,89.688z"/>
<path d="M1821.873,93.947l-83.468-82.404c-0.422-0.5-1.301-1.317-2.53-2.129c-2.201-1.45-4.544-2.187-6.955-2.187
	c-2.595,0-4.994,0.744-7.134,2.208c-1.417,0.976-2.176,1.852-2.5,2.286l-83.313,82.234c-1.427,1.404-2.209,3.275-2.209,5.266
	c0,1.986,0.783,3.855,2.209,5.26c2.625,2.604,6.455,1.86,10.104-1.731l5.601-5.538l77.475-75.047l0.473,0.46l82.15,80.776
	c2.518,1.648,4.779,2.522,6.609,2.522c1.365,0,2.508-0.474,3.487-1.442c1.425-1.404,2.209-3.269,2.216-5.261
	C1824.089,97.23,1823.306,95.359,1821.873,93.947L1821.873,93.947z"/>
<path d="M1790.737,89.688c-3.439,0-6.256,2.776-6.273,6.185v76.872c0,4.201-3.463,7.613-7.721,7.613h-19.137v-42.85
	c0-10.533-8.67-19.104-19.326-19.104h-18.717c-10.656,0-19.324,8.57-19.324,19.104v42.85h-19.137c-4.258,0-7.726-3.412-7.726-7.613
	V95.893c-0.008-3.423-2.815-6.203-6.263-6.203c-3.444,0-6.26,2.78-6.271,6.196v77.784c0,10.534,8.67,19.104,19.328,19.104h32.602
	v-54.334c0-4.192,3.467-7.602,7.727-7.602h16.854c4.262,0,7.723,3.408,7.723,7.602v54.334h32.605
	c10.653,0,19.327-8.569,19.327-19.104V95.878C1796.981,92.47,1794.173,89.688,1790.737,89.688L1790.737,89.688z"/>
<g>
	<path d="M423.902,95.54h-0.146c-2.768-50.269-44.531-90.313-95.477-90.313c-52.729,0-95.625,42.898-95.625,95.625
		c0,52.728,42.896,95.625,95.625,95.625c52.727,0,95.623-42.897,95.623-95.625c0-1.654-0.041-3.3-0.127-4.934L423.902,95.54z
		 M248.875,133.482c-4.259-9.621-6.721-18.099-6.911-29.03h31.604c0.086,11.065,1.223,19.554,3.254,29.209l-27.229,1.026
		L248.875,133.482z M330.879,55.64V15.03l-0.666-0.288c15.219,2.075,29.688,17.808,38.129,40.898H330.879z M370.891,65.442
		c2.811,9.714,4.574,18.291,4.955,29.209h-44.967V65.442H370.891z M323.078,14.875V55.64h-35.03
		C295.634,33.016,308.496,17.46,323.078,14.875L323.078,14.875z M323.078,65.442v29.209h-42.081
		c0.47-10.908,2.119-19.489,4.709-29.209H323.078z M273.682,94.651h-31.486c0.84-10.971,3.806-19.533,8.475-29.209h27.217
		c-2.344,9.667-3.797,19.175-4.203,30.209v-1H273.682z M280.867,104.452h42.211v29.209h-38.143
		C282.438,123.943,280.979,115.389,280.867,104.452L280.867,104.452z M323.078,143.462v42.866
		c-14.752-3.903-28.271-19.893-35.857-42.866H323.078z M330.879,187.137v-43.675h38.836
		C361.857,168.95,347.354,186.166,330.879,187.137L330.879,187.137z M330.879,133.661v-29.209h45.002
		c-0.256,10.912-1.674,19.473-4.027,29.209H330.879z M382.988,104.452h31.605c-0.182,10.999-2.523,19.539-6.619,29.209h-28.24
		C381.766,124.006,382.9,115.518,382.988,104.452L382.988,104.452z M382.877,94.651c-0.41-11.034-1.861-19.542-4.205-29.209h26.736
		c4.904,9.676,8.049,18.239,8.939,29.209H382.877z M400.951,55.64h-24.418c-4.697-15.285-11.744-27.006-20.424-35.71
		c18.361,6.961,34.271,20.159,44.842,36.71V55.64z M301.717,18.697c-9.264,8.717-16.771,20.92-21.693,36.942h-25.106
		C265.639,38.055,282.234,25.254,301.717,18.697L301.717,18.697z M252.93,143.462h25.779c4.559,16.618,11.921,29.267,21.201,38.405
		c-19.754-7.249-36.621-21.428-46.98-39.405V143.462z M355.416,183.046c9.859-9.124,17.676-22.235,22.432-39.584h26.348
		C393.756,162.473,376.266,176.23,355.416,183.046L355.416,183.046z"/>
</g>
<g>
	<g>
		<g>
			<defs>
				<rect id="SVGID_1_" x="467.5" y="13.235" width="175" height="175.248"/>
			</defs>
			<clipPath id="SVGID_2_">
				<use xlink:href="#SVGID_1_"  overflow="visible"/>
			</clipPath>
			<path clip-path="url(#SVGID_2_)" d="M604.893,28.949v15.617h-12.494V28.949c0-0.845-0.309-1.576-0.926-2.196
				c-0.619-0.618-1.354-0.928-2.195-0.928H483.088c-0.85,0-1.582,0.311-2.197,0.928c-0.619,0.619-0.928,1.351-0.928,2.196v106.189
				c0,0.848,0.307,1.579,0.928,2.198c0.617,0.617,1.348,0.927,2.197,0.927h15.613v12.49h-15.613c-4.297,0-7.975-1.525-11.031-4.586
				c-3.061-3.059-4.588-6.734-4.588-11.029V28.949c0-4.294,1.527-7.97,4.588-11.029c3.057-3.057,6.734-4.587,11.031-4.587h106.188
				c4.295,0,7.971,1.53,11.029,4.587C603.361,20.979,604.893,24.655,604.893,28.949L604.893,28.949z M642.371,66.427v106.19
				c0,4.295-1.529,7.971-4.588,11.031c-3.059,3.057-6.734,4.586-11.027,4.586H520.564c-4.295,0-7.971-1.529-11.029-4.586
				c-3.059-3.062-4.586-6.736-4.586-11.031V66.427c0-4.294,1.527-7.969,4.586-11.029c3.059-3.057,6.734-4.587,11.029-4.587h106.189
				c4.295,0,7.969,1.53,11.029,4.587C640.842,58.458,642.371,62.133,642.371,66.427L642.371,66.427z M629.879,172.617V66.427
				c0-0.844-0.311-1.576-0.928-2.195c-0.619-0.618-1.352-0.928-2.195-0.928H520.564c-0.846,0-1.578,0.31-2.197,0.928
				c-0.617,0.619-0.926,1.352-0.926,2.195v106.19c0,0.846,0.309,1.578,0.926,2.197c0.619,0.617,1.352,0.926,2.197,0.926h106.189
				c0.846,0,1.576-0.309,2.197-0.926C629.568,174.195,629.879,173.463,629.879,172.617L629.879,172.617z"/>
		</g>
	</g>
</g>
<path d="M874.391,20.898c-2.502-2.104-5.809-2.991-9.027-2.421l-93.99,16.584c-5.281,0.928-9.135,5.52-9.131,10.885v94.918
	c-5.609-4.069-12.891-6.47-20.975-6.47c-4.697,0-9.396,0.78-13.979,2.301c-10.492,3.501-18.906,10.514-23.088,19.26
	c-3.227,6.761-3.643,14.113-1.182,20.71c4.207,11.265,16.158,18.54,30.447,18.54c4.701,0,9.398-0.77,13.977-2.3
	c10.486-3.49,18.898-10.505,23.08-19.24c1.732-3.633,2.645-7.604,2.67-11.629h0.1v-88.45c0.637,0,1.283-0.056,1.926-0.16
	l92.068-16.248v67.102c-5.615-4.069-12.893-6.469-20.979-6.469c-4.699,0-9.402,0.778-13.98,2.301
	c-10.492,3.498-18.906,10.513-23.074,19.259c-3.23,6.762-3.648,14.112-1.189,20.707c4.213,11.271,16.152,18.543,30.449,18.543
	c4.756-0.007,9.475-0.784,13.979-2.299c10.482-3.488,18.896-10.505,23.076-19.238c1.734-3.634,2.648-7.604,2.676-11.632h0.1V29.362
	C878.344,26.101,876.895,22.993,874.391,20.898L874.391,20.898z M743.938,182.425c-13.244,4.418-26.938,0.099-30.564-9.618
	c-3.637-9.73,4.15-21.195,17.393-25.613c13.246-4.416,26.938-0.108,30.563,9.621C764.973,166.537,757.184,178.009,743.938,182.425
	L743.938,182.425z M848.777,165.84c-13.256,4.416-26.949,0.1-30.576-9.617c-3.637-9.729,4.158-21.195,17.395-25.613
	c13.254-4.416,26.945-0.109,30.574,9.619C869.813,149.953,862.029,161.422,848.777,165.84L848.777,165.84z M867.061,45.947
	l-93.99,16.585V45.947l93.988-16.584v16.584H867.061z"/>
<path d="M1080.297,153.561c7.146,0,11.91-2.385,16.678-7.149c4.766-4.765,7.145-9.528,7.145-16.677
	c0-5.953-2.381-10.721-5.953-15.484c-3.574-4.766-8.34-7.148-14.297-8.339c-3.572,0-5.955-3.572-5.955-7.148
	c0-14.295-5.957-26.207-14.295-35.737c-9.529-9.53-21.441-14.295-35.738-14.295c-10.721,0-19.059,2.383-27.398,8.338
	c-7.146,7.148-12.607,12.807-17.867,23.827c-1.146,2.402-3.574,4.765-5.957,4.765c-9.529,0-16.678,4.763-22.635,10.719
	c-5.955,5.959-9.527,14.296-9.527,23.826c0,9.528,3.572,17.868,9.527,23.824c5.957,5.958,14.297,9.53,23.826,9.53H1080.297z
	 M980.783,116.438c-1.174-1.176-1.174-4.707,0-5.881c1.178-1.177,4.707-1.177,5.883,0l8.232,8.233V94.087
	c0-2.353,2.355-4.706,4.707-4.706s4.705,2.353,4.705,4.706v24.703l8.232-8.233c1.178-1.177,4.705-1.177,5.883,0
	c1.178,2.352,1.178,4.705,0,5.881l-18.928,17.479l-1.807-1.5L980.783,116.438z M1030.189,112.907c-1.178,1.178-4.705,1.178-5.881,0
	c-1.178-2.353-1.178-4.705,0-5.882l19.129-18.619l2.063,2.151l14.098,15.292c1.176,1.176,1.176,4.705,0,5.881
	c-1.178,1.177-4.705,1.177-5.881,0l-5.883-7.057v24.7c0,2.354-2.354,4.706-4.705,4.706c-2.354,0-4.705-2.352-4.705-4.706v-24.7
	L1030.189,112.907z M1106.648,156.432c-7.059,7.059-15.293,10.586-25.879,10.586h-101.16c-12.939,0-25.879-5.879-34.113-14.115
	c-8.234-9.41-14.115-21.172-14.115-34.111s4.705-24.703,12.938-32.937c7.059-7.059,16.469-12.94,28.23-14.116
	c4.707-9.411,11.764-17.646,21.174-23.527c10.588-7.058,22.35-10.586,35.289-10.586c17.646,0,32.938,7.058,44.699,18.821
	c10.588,10.587,17.645,24.703,18.82,39.993c5.883,2.353,11.764,5.884,16.469,11.764c5.881,7.061,8.234,15.294,8.234,23.527
	C1117.236,141.139,1113.707,150.549,1106.648,156.432L1106.648,156.432z"/>
<path fill="none" stroke="#000000" stroke-width="11" stroke-miterlimit="10" d="M1530.305,187.607h-34.292
	c-32.529,0-58.22,0-58.22-16.871v-3.375c0-31.62,26.12-57.34,58.22-57.34h34.291c32.1,0,58.22,25.72,58.22,57.34v3.375
	C1588.519,187.607,1561.536,187.607,1530.305,187.607L1530.305,187.607z"/>
<path fill="none" stroke="#000000" stroke-width="11" stroke-miterlimit="10" d="M1511.44,94.084
	c-21.649,0-39.257-17.355-39.257-38.688s17.607-38.683,39.257-38.683c21.651,0,39.257,17.35,39.257,38.683
	S1533.087,94.084,1511.44,94.084L1511.44,94.084z"/>
<path fill="none" stroke="#000000" stroke-width="11" stroke-miterlimit="10" d="M1504.252,110.779"/>
<rect x="1434.049" y="23.879" fill="none" width="143.784" height="164.305"/>
</svg>
